<?xml version="1.0" standalone="no"?>
<!DOCTYPE svg PUBLIC "-//W3C//DTD SVG 20010904//EN"
 "http://www.w3.org/TR/2001/REC-SVG-20010904/DTD/svg10.dtd">
<svg version="1.0" xmlns="http://www.w3.org/2000/svg"
 width="560.000000pt" height="560.000000pt" viewBox="0 0 560.000000 560.000000"
 preserveAspectRatio="xMidYMid meet">
<metadata>
Created by potrace 1.14, written by Peter Selinger 2001-2017
</metadata>
<g transform="translate(0.000000,560.000000) scale(0.100000,-0.100000)"
fill="#000000" stroke="none">
<path d="M2942 3779 c-29 -11 -51 -43 -71 -103 -18 -56 -18 -60 -1 -110 13
-39 15 -55 6 -69 -8 -13 -7 -24 4 -44 14 -24 24 -32 70 -53 31 -15 19 -37 -45
-85 -63 -46 -147 -136 -182 -195 l-17 -29 -49 82 -50 82 12 56 c6 30 11 67 11
82 0 38 -28 47 -52 17 -16 -20 -21 -21 -29 -9 -5 7 -9 24 -9 36 0 13 -11 30
-24 38 -22 15 -27 14 -65 -6 -68 -35 -69 -115 -2 -204 20 -27 45 -75 55 -105
32 -99 89 -204 138 -252 46 -47 47 -47 106 -44 73 4 76 7 112 63 l29 45 15
-37 c9 -21 16 -66 16 -101 0 -77 8 -72 -169 -109 -68 -14 -130 -29 -137 -33
-7 -4 -34 -27 -58 -50 -49 -47 -63 -87 -52 -147 l7 -35 -79 0 c-93 0 -79 -23
-117 195 -14 83 -28 157 -30 165 -3 8 -12 80 -20 160 -22 210 -45 265 -117
276 -21 4 -38 12 -38 19 0 6 20 32 45 57 39 39 45 52 46 89 0 24 1 67 2 94 2
77 -35 141 -101 177 -30 16 -59 27 -66 25 -6 -3 -20 1 -31 9 -22 16 -73 18
-107 5 -13 -5 -34 -12 -48 -15 -14 -3 -49 -27 -77 -54 -44 -41 -53 -55 -53
-84 0 -19 5 -39 11 -45 8 -8 8 -17 0 -31 -6 -11 -11 -36 -11 -54 0 -47 81
-128 128 -128 17 0 46 -9 64 -20 18 -11 41 -20 51 -20 11 0 17 -8 17 -24 0
-28 -20 -52 -53 -62 -48 -14 -89 -57 -123 -128 -19 -39 -41 -80 -49 -90 -14
-19 -15 -18 -52 6 -21 13 -54 32 -74 41 -46 21 -56 33 -64 82 -4 22 -12 48
-17 58 -9 18 -48 24 -48 7 0 -7 -7 -7 -20 0 -27 14 -55 5 -80 -27 -41 -52 -16
-133 47 -153 47 -15 63 -28 63 -49 0 -8 26 -39 58 -68 l57 -52 -67 -1 c-85 0
-234 -56 -278 -103 -33 -36 -70 -140 -70 -198 0 -41 0 -41 -31 -35 -17 3 -39
1 -50 -4 -23 -13 -23 -20 -3 101 25 160 -2 214 -114 225 -34 4 -66 12 -71 18
-5 6 -16 36 -25 68 -24 84 -83 153 -146 172 -39 12 -57 13 -83 4 -51 -18 -85
-48 -108 -96 -20 -40 -21 -49 -10 -95 6 -28 8 -54 4 -58 -5 -4 -32 -3 -61 1
-105 17 -202 -49 -202 -138 0 -31 26 -60 78 -86 55 -28 35 -41 -55 -38 -66 3
-89 0 -132 -18 -93 -41 -119 -109 -61 -165 17 -16 30 -38 30 -49 0 -12 -23
-45 -50 -75 -44 -47 -50 -59 -50 -97 0 -34 5 -47 27 -64 24 -19 38 -21 120
-18 65 2 96 -1 105 -10 13 -13 49 -114 43 -120 -1 -2 -44 -10 -94 -18 -92 -15
-154 -41 -171 -74 -28 -53 4 -109 78 -136 26 -9 71 -33 99 -52 47 -32 59 -35
118 -34 79 1 136 -27 132 -66 l-2 -24 285 -5 c157 -3 596 -3 975 -1 380 1
1057 1 1505 0 653 -3 813 -1 803 9 -7 7 -32 24 -56 38 -47 28 -123 95 -171
151 -25 30 -27 39 -22 82 9 65 68 150 168 240 43 39 77 73 74 75 -6 7 -168
-77 -193 -100 -13 -11 -23 -29 -23 -39 0 -41 -61 -98 -104 -98 -21 0 -84 57
-112 102 -29 46 -31 87 -4 120 28 36 150 93 251 118 72 18 89 26 98 46 16 35
30 21 24 -24 -6 -49 11 -59 108 -62 128 -5 159 -2 159 15 0 8 6 15 14 15 8 0
24 12 35 27 12 14 23 24 24 22 16 -20 29 -80 30 -136 1 -63 -2 -72 -29 -102
-58 -67 -71 -81 -78 -81 -4 0 -28 -20 -53 -45 l-45 -46 41 -59 c23 -32 48 -76
55 -97 8 -21 21 -55 30 -75 l16 -37 -45 -31 c-24 -17 -42 -36 -39 -43 7 -19
-30 -53 -82 -76 -37 -17 -45 -25 -42 -43 2 -19 10 -23 47 -26 62 -5 86 3 132
45 l40 36 28 -27 c23 -22 42 -28 117 -37 49 -6 130 -17 179 -26 53 -9 115 -13
150 -10 33 4 119 10 190 16 145 10 202 28 240 73 18 21 25 41 25 73 l0 43 73
7 c105 10 149 32 177 89 30 63 25 135 -13 174 -14 15 -33 45 -42 66 -15 36
-15 44 1 108 28 118 -1 245 -77 331 -39 45 -55 48 -170 32 l-56 -7 -31 50
c-42 68 -73 87 -142 87 -47 0 -61 -5 -96 -33 -50 -40 -88 -107 -110 -193 -17
-69 -26 -84 -57 -101 -19 -10 -20 -8 -15 95 8 146 14 141 -161 147 l-141 5 -3
100 c-4 126 -31 193 -109 266 l-53 48 41 38 c50 47 59 71 41 115 -9 22 -13 53
-9 86 4 48 2 53 -29 82 -49 45 -95 63 -133 51 -17 -5 -48 -12 -68 -16 -23 -3
-56 -22 -88 -49 -29 -24 -66 -47 -84 -50 -42 -8 -69 -28 -71 -52 0 -10 -9 -31
-18 -45 -24 -36 -14 -74 24 -90 17 -6 42 -25 57 -41 48 -52 96 -71 163 -63 69
8 74 0 25 -48 -18 -18 -46 -56 -61 -83 -16 -27 -44 -73 -63 -102 -31 -48 -33
-54 -20 -75 8 -12 12 -30 10 -40 -3 -17 -20 -18 -248 -16 -134 0 -252 3 -262
6 -17 4 -20 56 -14 271 l2 52 42 -2 c37 -3 44 0 65 31 21 31 23 45 22 135 -2
97 -3 104 -41 176 -55 104 -104 182 -128 202 -11 9 -42 24 -68 34 -47 18 -142
89 -142 106 0 6 9 21 20 35 22 29 26 73 8 91 -7 7 -12 37 -11 70 1 68 -22 106
-76 130 -36 15 -158 22 -189 11z m-792 -1137 c7 -48 19 -107 27 -130 8 -24 13
-45 11 -47 -2 -1 -43 0 -91 3 -76 4 -87 7 -81 21 25 60 37 102 37 139 0 23 3
42 6 42 4 0 17 18 31 40 33 53 45 39 60 -68z m2015 -182 c4 -6 -12 -10 -40
-10 -28 0 -44 4 -40 10 3 6 21 10 40 10 19 0 37 -4 40 -10z m-1037 -274 c-40
-68 -64 -93 -104 -106 -42 -14 -74 1 -74 34 0 13 9 45 20 72 l21 49 83 1 84 1
-30 -51z"/>
<path d="M2992 2178 c5 -15 74 -35 84 -25 4 4 1 13 -6 22 -15 18 -84 21 -78 3z"/>
<path d="M3935 1735 c26 -21 61 -29 82 -20 15 5 16 7 3 14 -8 5 -35 11 -60 15
-42 6 -44 5 -25 -9z"/>
<path d="M4015 1680 c-16 -7 -17 -9 -3 -9 9 -1 20 4 23 9 7 11 7 11 -20 0z"/>
</g>
</svg>
